<svg width="54" height="54" viewBox="0 0 54 54" fill="none" xmlns="http://www.w3.org/2000/svg">
<rect width="54" height="54" rx="27" fill="#AB2914" fill-opacity="0.1"/>
<path d="M29.0677 30.8367L28.2032 31.7012H34.2271V37H20.0876V32.1753L26.251 25.9004L27.1992 24.9522C27.7756 24.3015 28.0637 23.6879 28.0637 23.1116C28.0637 22.6282 27.8964 22.247 27.5618 21.9681C27.2271 21.6707 26.8088 21.5219 26.3068 21.5219C25.1541 21.5219 23.7503 22.2563 22.0956 23.7251L19 19.5418C21.417 17.1806 24.085 16 27.004 16C29.0491 16 30.7503 16.6228 32.1076 17.8685C33.4648 19.1142 34.1434 20.6388 34.1434 22.4422C34.1434 23.8367 33.7158 25.1567 32.8606 26.4024C32.0053 27.6853 30.741 29.1633 29.0677 30.8367Z" fill="#AB2914"/>
</svg>
