<svg width="54" height="54" viewBox="0 0 54 54" fill="none" xmlns="http://www.w3.org/2000/svg">
<rect width="54" height="54" rx="27" fill="#9C00D2" fill-opacity="0.1"/>
<path d="M27.0916 37C24.6361 37 22.2723 36.3312 20 34.9935L22.2814 30.4581C23.839 31.3194 25.2866 31.75 26.6243 31.75C28.1636 31.75 28.9332 31.2736 28.9332 30.3207C28.9332 29.9542 28.7683 29.661 28.4385 29.4411C28.1086 29.2029 27.6597 29.0838 27.0916 29.0838H24.4254V23.9987H26.322C27 23.9987 27.5223 23.8796 27.8887 23.6414C28.2736 23.4031 28.466 23.0825 28.466 22.6793C28.466 22.2945 28.2919 21.983 27.9437 21.7448C27.6139 21.5065 27.1741 21.3874 26.6243 21.3874C25.7081 21.3874 24.5353 21.8272 23.106 22.7068L20.4673 18.5838C22.4647 16.8613 24.7919 16 27.449 16C29.3181 16 30.9031 16.5039 32.2042 17.5118C33.5236 18.5013 34.1832 19.7474 34.1832 21.25C34.1832 22.2762 33.8717 23.1832 33.2487 23.9712C32.6257 24.7408 31.8285 25.3089 30.8573 25.6754V25.7853C32.1401 26.0602 33.1296 26.6558 33.8259 27.572C34.5223 28.4882 34.8704 29.5694 34.8704 30.8154C34.8704 32.6479 34.1466 34.1414 32.699 35.2958C31.233 36.4319 29.3639 37 27.0916 37Z" fill="#9C00D2"/>
</svg>
